<svg width="8" height="8" viewBox="0 0 8 8" fill="none" xmlns="http://www.w3.org/2000/svg">
<path fill-rule="evenodd" clip-rule="evenodd" d="M0.175472 7.824C0.287972 7.93636 0.440472 7.99947 0.599472 7.99947C0.758473 7.99947 0.910972 7.93636 1.02347 7.824L6.79947 2.048V6.6C6.79947 6.75913 6.86269 6.91174 6.97521 7.02426C7.08773 7.13679 7.24034 7.2 7.39947 7.2C7.5586 7.2 7.71121 7.13679 7.82374 7.02426C7.93626 6.91174 7.99947 6.75913 7.99947 6.6V0.6C7.99947 0.44087 7.93626 0.288258 7.82374 0.175736C7.71121 0.063214 7.5586 0 7.39947 0H1.39947C1.24034 0 1.08773 0.063214 0.975208 0.175736C0.862686 0.288258 0.799472 0.44087 0.799472 0.6C0.799472 0.75913 0.862686 0.911742 0.975208 1.02426C1.08773 1.13679 1.24034 1.2 1.39947 1.2H5.95147L0.175472 6.976C0.0631115 7.0885 0 7.241 0 7.4C0 7.559 0.0631115 7.7115 0.175472 7.824Z" fill="#333333"/>
</svg>
