<svg width="8" height="14" viewBox="0 0 8 14" fill="none" xmlns="http://www.w3.org/2000/svg">
<path d="M0.329453 12.4002L5.94945 6.40019L7.04945 7.42019L1.41945 13.4202L0.329453 12.4002ZM5.94945 7.42019L0.329453 1.42019L1.41945 0.400191L7.04945 6.40019L5.94945 7.42019ZM6.49945 6.91019L7.04945 6.40019C7.31945 6.69019 7.31945 7.13019 7.04945 7.42019L6.49945 6.91019ZM0.329453 1.42019C0.0494533 1.12019 0.059453 0.640191 0.359453 0.360191C0.659453 0.0801909 1.13945 0.100191 1.41945 0.400191L0.329453 1.42019ZM1.41945 13.4202C1.13945 13.7202 0.659453 13.7402 0.359453 13.4602C0.059453 13.1802 0.0494533 12.7002 0.329453 12.4002L1.41945 13.4202Z" fill="black"/>
</svg>
